<svg width="17" height="15" viewBox="0 0 17 15" fill="none" xmlns="http://www.w3.org/2000/svg">
<path d="M2.66667 1L1 2.66667" stroke="#262626" stroke-width="1.66667" stroke-linecap="round"/>
<path d="M14.3333 1L16 2.66667" stroke="#262626" stroke-width="1.66667" stroke-linecap="round"/>
<path fill-rule="evenodd" clip-rule="evenodd" d="M8.4998 14.3333C12.1817 14.3333 15.1665 11.3486 15.1665 7.66667C15.1665 3.98477 12.1817 1 8.4998 1C4.8179 1 1.83313 3.98477 1.83313 7.66667C1.83313 11.3486 4.8179 14.3333 8.4998 14.3333ZM10.8177 6.10365C11.1052 5.74427 11.0469 5.21986 10.6876 4.93235C10.3282 4.64484 9.80377 4.70311 9.51626 5.0625L8.32687 6.54923L6.46257 5.30637C6.07963 5.05107 5.56223 5.15455 5.30694 5.53749C5.05165 5.92043 5.15512 6.43782 5.53807 6.69312L7.87914 8.25383C8.32871 8.55355 8.93282 8.45976 9.27036 8.03784L10.8177 6.10365Z" fill="#262626"/>
</svg>
