<svg width="24" height="24" viewBox="0 0 24 24" fill="none" xmlns="http://www.w3.org/2000/svg">
<path fill-rule="evenodd" clip-rule="evenodd" d="M8.58995 7.31449C8.10381 6.82836 8.10381 6.04018 8.58995 5.55405C9.07608 5.06792 9.86425 5.06792 10.3504 5.55405L17.6952 12.8989C17.7338 12.834 17.7818 12.6989 17.7818 12.4822C17.7818 12.4094 17.6881 12.1802 17.5564 11.8586C17.0745 10.6809 16.0848 8.26256 17.3292 7.72925C18.4967 7.22889 19.4184 9.80122 20.0943 11.6875C20.3356 12.3609 20.5456 12.9469 20.7242 13.2743C20.7455 13.3133 20.7675 13.3534 20.7901 13.3946C21.4908 14.6691 22.7752 17.0055 19.7057 20.4038C16.5371 23.9119 11.8973 22.2144 10.313 20.6301C9.58181 19.8989 8.88829 19.1828 8.2672 18.5339C8.26217 18.5291 8.25718 18.5242 8.25221 18.5192L3.61106 13.8781C3.12493 13.3919 3.12493 12.6037 3.61106 12.1176C4.09719 11.6315 4.88537 11.6315 5.3715 12.1176L8.84655 15.5927L9.01786 15.4377L3.83698 10.2568C3.35085 9.77067 3.35085 8.9825 3.83698 8.49636C4.32312 8.01023 5.11129 8.01023 5.59742 8.49636L10.8663 13.7653L11.038 13.6099L5.42156 7.99348C4.93543 7.50735 4.93543 6.71917 5.42156 6.23304C5.9077 5.74691 6.69587 5.74691 7.182 6.23304L12.8865 11.9375L13.0579 11.7824L8.58995 7.31449Z" fill="#FFE55D"/>
<path d="M12.3976 2.9707C12.819 2.95467 13.8213 3.11913 14.4589 3.9052C15.0966 4.69128 15.2717 5.65701 15.2796 6.04162" stroke="#FF9E48" stroke-width="1.19251" stroke-linecap="round"/>
<path d="M15.1715 1.29297C15.4322 1.28355 16.0525 1.38769 16.4481 1.87964C16.8436 2.37159 16.9534 2.97512 16.9588 3.21539" stroke="#FF9E48" stroke-width="1.19251" stroke-linecap="round"/>
<path d="M7.33813 20.6328C6.92036 20.6905 5.90671 20.6262 5.19433 19.9071C4.48194 19.1881 4.21197 18.2444 4.16603 17.8625" stroke="#FF9E48" stroke-width="1.19251" stroke-linecap="round"/>
<path d="M4.74426 22.5762C4.48579 22.6114 3.85824 22.5692 3.41587 22.1188C2.97351 21.6685 2.80453 21.0788 2.77534 20.8403" stroke="#FF9E48" stroke-width="1.19251" stroke-linecap="round"/>
</svg>
