<svg xmlns="http://www.w3.org/2000/svg" viewBox="0 0 48 48" fill="none">
  <g>
    <!-- 배경 원 -->
    <circle cx="24" cy="24" r="24" fill="white"/>
    <circle cx="24" cy="24" r="24" stroke="#E0E0E9" stroke-width="0.2"/>
    
    <!-- 구글 로고 -->
    <path d="M35.54 24.2615C35.54 23.446 35.4668 22.6619 35.3309 21.9092H24.5V26.3576H30.6891C30.4225 27.7951 29.6123 29.013 28.3943 29.8285V32.714H32.1109C34.2855 30.7119 35.54 27.7637 35.54 24.2615Z" fill="#4285F4"/>
    <path d="M24.4999 35.4998C27.6049 35.4998 30.2081 34.47 32.1108 32.7137L28.3942 29.8282C27.3644 30.5182 26.0472 30.9259 24.4999 30.9259C21.5047 30.9259 18.9694 28.903 18.0651 26.1848H14.2231V29.1644C16.1154 32.9228 20.0044 35.4998 24.4999 35.4998Z" fill="#34A853"/>
    <path d="M18.0652 26.185C17.8352 25.495 17.7045 24.7579 17.7045 24C17.7045 23.242 17.8352 22.505 18.0652 21.815V18.8354H14.2232C13.4443 20.3879 13 22.1443 13 24C13 25.8557 13.4443 27.612 14.2232 29.1645L18.0652 26.185Z" fill="#FBBC05"/>
    <path d="M24.4999 17.0739C26.1883 17.0739 27.7042 17.6541 28.896 18.7936L32.1944 15.4952C30.2029 13.6395 27.5997 12.5 24.4999 12.5C20.0044 12.5 16.1154 15.077 14.2231 18.8355L18.0651 21.815C18.9694 19.0968 21.5047 17.0739 24.4999 17.0739Z" fill="#EA4335"/>
  </g>
</svg>