<svg width="24" height="24" viewBox="0 0 24 24" fill="none" xmlns="http://www.w3.org/2000/svg">
<path d="M5.88375 7.48739L7.41 20.5021C7.41 21.2349 9.465 21.8296 12 21.8296C14.535 21.8296 16.59 21.2349 16.59 20.5021L18.375 7.38764C16.5338 8.15564 13.266 8.23814 12.0015 8.23814C10.794 8.23814 7.76025 8.16314 5.88525 7.48814L5.88375 7.48739ZM18.0975 4.31489L17.8155 3.05489C17.8155 2.56739 15.2115 2.17139 12 2.17139C8.7885 2.17139 6.1845 2.56889 6.1845 3.05639L5.9025 4.31414C5.367 4.52714 5.0625 4.77014 5.0625 5.02889V5.99264C5.0625 6.81764 8.169 7.48814 12 7.48814C15.831 7.48814 18.9375 6.81764 18.9375 5.99189V5.02814C18.9375 4.76939 18.633 4.52564 18.0975 4.31339V4.31489Z" fill="#9CA3AF"/>
</svg>
