<svg width="24" height="24" viewBox="0 0 14 20" fill="none" xmlns="http://www.w3.org/2000/svg">
<path d="M0.82125 5.316L2.3475 18.3307C2.3475 19.0635 4.4025 19.6583 6.9375 19.6583C9.4725 19.6583 11.5275 19.0635 11.5275 18.3307L13.3125 5.21625C11.4713 5.98425 8.2035 6.06675 6.939 6.06675C5.7315 6.06675 2.69775 5.99175 0.82275 5.31675L0.82125 5.316ZM13.035 2.1435L12.753 0.8835C12.753 0.396 10.149 0 6.9375 0C3.726 0 1.122 0.3975 1.122 0.885L0.84 2.14275C0.3045 2.35575 0 2.59875 0 2.8575V3.82125C0 4.64625 3.1065 5.31675 6.9375 5.31675C10.7685 5.31675 13.875 4.64625 13.875 3.8205V2.85675C13.875 2.598 13.5705 2.35425 13.035 2.142V2.1435Z" fill="black"/>
</svg>
