<svg width="18" height="20" viewBox="0 0 18 20" fill="none" xmlns="http://www.w3.org/2000/svg">
<path d="M4 20C3.71667 20 3.47933 19.904 3.288 19.712C3.09667 19.52 3.00067 19.2827 3 19V10.85C2.1 10.6167 1.375 10.1417 0.825 9.425C0.275 8.70834 0 7.9 0 7V1C0 0.71667 0.0960001 0.479337 0.288 0.288004C0.48 0.0966702 0.717333 0.000670115 1 3.44827e-06C1.28267 -0.000663218 1.52033 0.0953369 1.713 0.288004C1.90567 0.48067 2.00133 0.718003 2 1V6H3V1C3 0.71667 3.096 0.479337 3.288 0.288004C3.48 0.0966702 3.71733 0.000670115 4 3.44827e-06C4.28267 -0.000663218 4.52033 0.0953369 4.713 0.288004C4.90567 0.48067 5.00133 0.718003 5 1V6H6V1C6 0.71667 6.096 0.479337 6.288 0.288004C6.48 0.0966702 6.71733 0.000670115 7 3.44827e-06C7.28267 -0.000663218 7.52033 0.0953369 7.713 0.288004C7.90567 0.48067 8.00133 0.718003 8 1V7C8 7.9 7.725 8.70834 7.175 9.425C6.625 10.1417 5.9 10.6167 5 10.85V19C5 19.2833 4.904 19.521 4.712 19.713C4.52 19.905 4.28267 20.0007 4 20ZM14 20C13.7167 20 13.4793 19.904 13.288 19.712C13.0967 19.52 13.0007 19.2827 13 19V10.475C12.1 10.175 11.375 9.546 10.825 8.588C10.275 7.63 10 6.54234 10 5.325C10 3.84167 10.3917 2.58334 11.175 1.55C11.9583 0.51667 12.9 3.44827e-06 14 3.44827e-06C15.1 3.44827e-06 16.0417 0.52067 16.825 1.562C17.6083 2.60334 18 3.866 18 5.35C18 6.56667 17.725 7.65 17.175 8.6C16.625 9.55 15.9 10.175 15 10.475V19C15 19.2833 14.904 19.521 14.712 19.713C14.52 19.905 14.2827 20.0007 14 20Z" fill="#8E8E93"/>
</svg>
