<svg width="24" height="24" viewBox="0 0 20 20" fill="none" xmlns="http://www.w3.org/2000/svg">
<path d="M18.9653 0.378853C18.7709 -0.109428 18.2153 -0.128959 17.9827 0.331978C16.9063 2.43745 14.9792 3.74995 12.7778 3.74995H10.0001C6.3195 3.74995 3.33339 7.10932 3.33339 11.2499C3.33339 11.5234 3.36116 11.7851 3.38547 12.0507C5.60075 10.2656 8.79866 8.74995 13.3334 8.74995C13.6389 8.74995 13.8889 9.0312 13.8889 9.37495C13.8889 9.7187 13.6389 9.99995 13.3334 9.99995C4.60422 9.99995 0.902831 16.0195 0.0833867 18.2812C-0.14578 18.9179 0.125053 19.6445 0.691025 19.9062C1.26047 20.1718 1.9063 19.8632 2.14241 19.2304C2.1945 19.0898 2.86811 17.3593 4.63894 15.6914C5.76394 17.4062 7.90283 19.0429 10.7119 18.707C16.1632 18.2617 20.0001 12.7617 20.0001 6.02729C20.0001 4.06635 19.6251 2.0351 18.9653 0.378853Z" fill="#9CA3AF"/>
</svg>
