<?xml version="1.0" standalone="no"?>
<!DOCTYPE svg PUBLIC "-//W3C//DTD SVG 20010904//EN"
 "http://www.w3.org/TR/2001/REC-SVG-20010904/DTD/svg10.dtd">
<svg version="1.0" xmlns="http://www.w3.org/2000/svg"
 width="225.000000pt" height="225.000000pt" viewBox="0 0 225.000000 225.000000"
 preserveAspectRatio="xMidYMid meet">

<g transform="translate(0.000000,225.000000) scale(0.100000,-0.100000)"
fill="#000000" stroke="none">
<path d="M0 1125 l0 -1125 1125 0 1125 0 0 1125 0 1125 -1125 0 -1125 0 0
-1125z m1950 895 c122 0 130 -1 144 -22 14 -20 16 -123 16 -913 0 -790 -2
-893 -16 -913 l-15 -22 -953 0 c-727 0 -955 3 -964 12 -17 17 -17 1829 0 1846
8 8 50 12 125 12 l113 0 0 30 c0 17 5 30 10 30 6 0 10 -13 10 -30 l0 -30 695
0 695 0 2 38 1 37 4 -37 4 -38 129 0z"/>
<path d="M273 1983 c26 -2 67 -2 90 0 23 2 2 3 -48 3 -49 0 -68 -1 -42 -3z"/>
<path d="M768 1983 c195 -2 510 -2 700 0 191 1 32 2 -353 2 -385 0 -541 -1
-347 -2z"/>
<path d="M1873 1983 c32 -2 81 -2 110 0 29 2 3 3 -58 3 -60 0 -84 -1 -52 -3z"/>
<path d="M190 1965 c-7 -9 -11 -17 -9 -20 3 -2 10 5 17 15 14 24 10 26 -8 5z"/>
<path d="M2051 1963 c7 -12 15 -20 18 -17 3 2 -3 12 -13 22 -17 16 -18 16 -5
-5z"/>
<path d="M386 1941 c-10 -16 17 -46 33 -37 6 4 11 16 11 28 0 16 -3 18 -14 9
-11 -9 -15 -9 -18 1 -3 9 -6 9 -12 -1z"/>
<path d="M1794 1936 c-7 -18 12 -39 31 -33 14 5 19 47 6 47 -6 0 -11 -6 -11
-12 0 -9 -3 -8 -10 2 -8 12 -10 12 -16 -4z"/>
<path d="M800 1760 l0 -81 148 3 147 3 3 78 3 77 -151 0 -150 0 0 -80z m220
-5 c0 -24 -2 -25 -70 -25 -68 0 -70 1 -70 25 0 24 2 25 70 25 68 0 70 -1 70
-25z"/>
<path d="M1158 1810 l4 -30 104 0 c86 0 104 -3 104 -15 0 -12 -18 -15 -105
-15 l-105 0 0 -70 0 -70 145 0 145 0 0 25 c0 24 -1 24 -107 27 -74 2 -108 7
-111 16 -3 9 20 12 91 12 53 0 102 3 111 6 12 5 16 21 16 75 l0 69 -148 0
-149 0 5 -30z"/>
<path d="M782 1623 c3 -27 6 -28 66 -31 l62 -3 0 -50 c0 -56 15 -69 56 -51 20
10 24 19 24 57 l0 45 59 0 c44 0 60 4 65 16 17 43 15 44 -165 44 l-170 0 3
-27z"/>
<path d="M1200 1565 c0 -21 -5 -25 -30 -25 -25 0 -30 -4 -30 -25 l0 -25 163 2
c159 3 162 3 165 26 3 18 -1 22 -22 22 -21 0 -26 5 -26 25 0 23 -4 25 -40 25
-36 0 -40 -2 -40 -25 0 -21 -5 -25 -30 -25 -25 0 -30 4 -30 25 0 23 -4 25 -40
25 -36 0 -40 -2 -40 -25z"/>
<path d="M639 1393 c-10 -11 -15 -56 -17 -154 -3 -137 -3 -139 22 -164 20 -20
35 -25 73 -25 28 0 58 7 71 16 21 15 22 21 22 169 0 179 2 175 -98 175 -43 0
-63 -5 -73 -17z m99 -160 c-2 -97 -6 -118 -18 -118 -12 0 -16 21 -18 118 -3
112 -2 117 18 117 20 0 21 -5 18 -117z"/>
<path d="M840 1230 c0 -173 1 -180 20 -180 11 0 29 9 40 20 18 18 20 33 20
180 l0 160 -40 0 -40 0 0 -180z"/>
<path d="M980 1236 c0 -149 2 -175 16 -180 28 -11 150 -6 162 6 8 8 12 63 12
180 l0 168 -95 0 -95 0 0 -174z m110 -6 c0 -100 -2 -120 -15 -120 -12 0 -15
20 -15 120 0 100 3 120 15 120 13 0 15 -20 15 -120z"/>
<path d="M1190 1230 l0 -180 23 0 c51 0 57 23 57 198 l0 162 -40 0 -40 0 0
-180z"/>
<path d="M1330 1380 c0 -27 3 -30 30 -30 l30 0 0 -75 c0 -84 -17 -137 -49
-155 -20 -10 -29 -49 -15 -63 9 -9 60 12 79 33 16 18 18 18 52 -6 20 -13 44
-24 54 -24 30 0 23 44 -11 78 -29 29 -30 34 -30 121 l0 90 28 3 c21 2 28 9 30
31 l3 27 -100 0 -101 0 0 -30z"/>
<path d="M1550 1230 c0 -193 1 -196 51 -170 18 10 19 23 19 180 l0 170 -35 0
-35 0 0 -180z"/>
<path d="M668 859 l-3 -121 -32 -29 c-21 -18 -33 -38 -33 -54 0 -33 26 -33 74
0 l38 25 30 -25 c16 -14 38 -25 49 -25 30 0 25 46 -8 75 -27 23 -28 26 -31
149 l-4 126 -38 0 -38 0 -4 -121z"/>
<path d="M820 805 l0 -175 29 0 c40 0 50 16 53 95 3 61 6 70 23 74 23 4 35 19
35 44 0 12 -8 17 -30 17 l-30 0 0 60 0 60 -40 0 -40 0 0 -175z"/>
<path d="M992 968 c-17 -17 -17 -309 0 -326 7 -7 40 -12 78 -12 98 0 100 4
100 177 0 169 -2 173 -101 173 -37 0 -70 -5 -77 -12z m98 -161 c0 -63 -3 -117
-7 -120 -3 -4 -12 -2 -20 4 -9 8 -13 40 -13 114 0 103 3 115 27 115 10 0 13
-26 13 -113z"/>
<path d="M1190 805 l0 -175 28 0 c49 0 52 11 52 187 l0 163 -40 0 -40 0 0
-175z"/>
<path d="M1332 858 l3 -123 148 -3 147 -3 0 31 0 30 -110 0 c-103 0 -110 1
-110 20 0 18 8 20 108 22 107 3 107 3 107 28 0 25 0 25 -107 28 -86 2 -108 6
-108 17 0 11 22 15 108 17 l107 3 3 28 3 27 -151 0 -151 0 3 -122z"/>
<path d="M1312 658 c3 -23 6 -23 166 -26 l162 -2 0 25 0 25 -166 0 -165 0 3
-22z"/>
<path d="M370 475 c0 -8 9 -15 20 -15 17 0 20 -7 20 -44 0 -28 -7 -52 -20 -69
-33 -41 -24 -61 15 -33 17 12 22 12 39 0 11 -8 24 -14 28 -14 14 0 9 27 -7 40
-10 8 -15 31 -15 66 0 41 4 54 15 54 8 0 15 7 15 15 0 12 -13 15 -55 15 -42 0
-55 -3 -55 -15z"/>
<path d="M490 455 c0 -24 -5 -35 -15 -35 -8 0 -15 -7 -15 -15 0 -8 7 -15 15
-15 11 0 15 -12 15 -46 0 -38 3 -45 18 -42 14 3 17 17 20 96 3 87 2 92 -18 92
-16 0 -20 -6 -20 -35z"/>
<path d="M550 479 c0 -6 9 -13 20 -16 11 -3 20 -9 20 -14 0 -5 -9 -14 -20 -21
-11 -7 -20 -18 -20 -25 0 -16 32 -17 48 -1 9 9 15 9 24 0 18 -18 88 -16 88 3
0 8 7 15 15 15 8 0 15 9 15 20 0 11 -7 20 -15 20 -8 0 -15 7 -15 15 0 12 -16
15 -80 15 -51 0 -80 -4 -80 -11z m116 -56 c-7 -7 -36 16 -36 27 0 5 8 10 18
12 16 3 31 -27 18 -39z"/>
<path d="M752 478 c3 -7 19 -14 37 -16 24 -3 31 -8 29 -20 -2 -13 -12 -16 -36
-14 -24 3 -32 0 -32 -12 0 -9 7 -16 15 -16 18 0 20 -23 3 -49 -6 -10 -8 -26
-5 -35 6 -14 19 -16 79 -14 46 2 73 7 76 16 3 8 -12 12 -51 12 -40 0 -56 4
-61 15 -3 8 -2 15 3 15 5 0 11 9 14 20 4 14 13 20 34 19 20 -1 23 -3 8 -6 -35
-9 -39 -22 -10 -33 50 -19 57 -12 59 63 1 62 -1 67 -20 67 -17 0 -20 -5 -16
-29 2 -16 -1 -32 -7 -35 -7 -5 -11 5 -11 28 l0 36 -56 0 c-40 0 -55 -4 -52
-12z"/>
<path d="M1000 475 c0 -10 10 -15 30 -15 17 0 30 -4 30 -8 0 -14 -23 -32 -42
-32 -10 0 -18 -7 -18 -15 0 -19 40 -20 66 0 25 19 54 19 54 0 0 -8 9 -15 20
-15 17 0 20 7 20 50 0 43 -3 50 -20 50 -13 0 -20 -7 -20 -20 0 -11 -4 -20 -10
-20 -5 0 -10 9 -10 20 0 17 -7 20 -50 20 -38 0 -50 -4 -50 -15z"/>
<path d="M1180 476 c0 -8 10 -16 23 -18 l22 -3 -22 -22 c-13 -13 -23 -27 -23
-33 0 -14 33 -13 48 2 9 9 15 9 24 0 16 -16 38 -15 38 2 0 7 -7 19 -15 26 -8
7 -15 16 -15 21 0 5 7 9 15 9 8 0 15 7 15 15 0 12 -13 15 -55 15 -41 0 -55 -4
-55 -14z"/>
<path d="M1310 475 c0 -7 -8 -19 -17 -24 -17 -10 -17 -12 0 -25 9 -7 17 -18
17 -25 0 -6 9 -11 20 -11 17 0 20 7 20 50 0 43 -3 50 -20 50 -11 0 -20 -7 -20
-15z"/>
<path d="M1437 483 c-10 -9 -9 -83 1 -83 4 0 5 -22 4 -50 l-4 -50 55 0 c31 0
59 5 62 10 4 7 13 6 26 -1 29 -15 36 -3 17 29 -11 20 -14 44 -10 90 4 58 3 62
-17 62 -12 0 -21 -6 -21 -15 0 -8 -4 -15 -9 -15 -5 0 -11 7 -15 15 -5 15 -76
22 -89 8z m58 -43 c0 -7 -6 -15 -12 -17 -8 -3 -13 4 -13 17 0 13 5 20 13 18 6
-3 12 -11 12 -18z m49 -62 c-7 -42 -7 -42 -15 -14 -5 17 -4 37 2 48 16 30 22
14 13 -34z"/>
<path d="M1622 453 l3 -38 74 0 c51 0 76 4 79 13 3 9 -12 12 -52 12 -53 0 -56
1 -56 25 0 20 -5 25 -26 25 -23 0 -25 -3 -22 -37z"/>
<path d="M1828 483 c-2 -5 -2 -36 0 -70 5 -80 26 -86 36 -10 9 79 8 87 -13 87
-11 0 -21 -3 -23 -7z"/>
<path d="M1612 388 c3 -9 33 -14 91 -16 73 -2 87 0 87 13 0 12 -16 15 -91 15
-68 0 -90 -3 -87 -12z"/>
<path d="M560 365 c0 -12 12 -15 55 -15 52 0 55 -1 55 -26 0 -21 4 -25 23 -22
18 2 22 9 22 38 l0 35 -77 3 c-65 2 -78 0 -78 -13z"/>
<path d="M1010 365 c0 -12 13 -15 55 -15 52 0 55 -1 55 -25 0 -18 5 -25 20
-25 17 0 20 7 20 40 l0 40 -75 0 c-60 0 -75 -3 -75 -15z"/>
<path d="M1200 366 c-6 -8 -10 -25 -8 -38 3 -22 7 -23 78 -23 l75 0 3 29 c2
16 -2 32 -10 37 -23 15 -124 11 -138 -5z m110 -26 c0 -5 -18 -10 -41 -10 -24
0 -38 4 -34 10 3 6 22 10 41 10 19 0 34 -4 34 -10z"/>
<path d="M1622 333 c3 -28 4 -28 81 -31 64 -2 77 0 77 13 0 12 -12 15 -55 15
-42 0 -55 3 -55 15 0 9 -10 15 -26 15 -22 0 -25 -4 -22 -27z"/>
<path d="M1822 313 c2 -10 12 -18 23 -18 11 0 21 8 23 18 3 13 -3 17 -23 17
-20 0 -26 -4 -23 -17z"/>
<path d="M180 223 c0 -6 8 -17 18 -26 17 -16 96 -17 928 -17 500 0 914 4 921
8 6 4 -404 6 -910 4 l-922 -3 -17 22 c-10 12 -18 17 -18 12z"/>
</g>
</svg>
