<?xml version="1.0" standalone="no"?>
<!DOCTYPE svg PUBLIC "-//W3C//DTD SVG 20010904//EN"
 "http://www.w3.org/TR/2001/REC-SVG-20010904/DTD/svg10.dtd">
<svg version="1.0" xmlns="http://www.w3.org/2000/svg"
 width="300.000000pt" height="168.000000pt" viewBox="0 0 300.000000 168.000000"
 preserveAspectRatio="xMidYMid meet">

<g transform="translate(0.000000,168.000000) scale(0.100000,-0.100000)"
fill="#000000" stroke="none">
<path d="M2309 1602 l-32 -36 24 -7 c54 -16 76 -10 104 27 15 19 25 37 24 38
-2 2 -23 6 -46 9 -39 5 -45 2 -74 -31z"/>
<path d="M277 1530 c14 -25 24 -30 55 -30 43 0 44 1 22 35 -13 20 -25 25 -56
25 l-39 0 18 -30z"/>
<path d="M1100 1096 c0 -15 -7 -26 -17 -29 -16 -4 -16 -5 -1 -6 12 -1 18 -12
21 -43 2 -29 4 -18 5 30 1 39 0 72 -3 72 -3 0 -5 -11 -5 -24z"/>
<path d="M1540 1101 c0 -11 -8 -22 -17 -24 -16 -4 -16 -5 -1 -6 9 0 19 -9 21
-18 3 -10 5 1 6 25 0 23 -1 42 -4 42 -3 0 -5 -9 -5 -19z"/>
<path d="M1158 1103 c17 -7 15 -23 -5 -45 -9 -10 -11 -18 -5 -18 6 0 15 7 20
16 6 11 11 13 16 5 4 -6 12 -11 18 -11 6 0 4 8 -5 18 -21 23 -21 29 1 35 9 3
1 5 -18 5 -19 0 -29 -2 -22 -5z"/>
<path d="M1232 1075 c0 -22 2 -32 5 -22 2 9 10 17 16 17 9 0 9 2 1 8 -6 4 -14
14 -17 22 -3 8 -5 -3 -5 -25z"/>
<path d="M1313 1103 c29 -5 36 -27 12 -40 -10 -6 -11 -13 -5 -23 8 -13 10 -12
10 3 0 9 6 17 14 17 9 0 12 8 8 25 -4 21 -10 25 -36 24 -30 -2 -30 -2 -3 -6z"/>
<path d="M1378 1069 c-2 -22 0 -43 4 -45 4 -3 8 15 8 40 0 57 -7 60 -12 5z"/>
<path d="M1463 1103 c9 -2 25 -2 35 0 9 3 1 5 -18 5 -19 0 -27 -2 -17 -5z"/>
<path d="M1598 1103 c17 -7 15 -23 -5 -45 -16 -18 -16 -18 0 -12 9 3 17 11 17
17 0 7 4 7 12 -1 7 -7 16 -12 21 -12 5 0 1 7 -7 16 -21 20 -20 31 2 37 9 3 1
5 -18 5 -19 0 -29 -2 -22 -5z"/>
<path d="M1680 1096 c0 -8 -8 -17 -17 -19 -16 -4 -16 -5 -1 -6 9 0 19 -9 21
-18 3 -10 5 -1 6 20 0 20 -1 37 -4 37 -3 0 -5 -6 -5 -14z"/>
<path d="M1750 1095 c-10 -12 -10 -18 0 -30 7 -8 18 -15 25 -15 7 0 18 7 25
15 10 12 10 18 0 30 -7 8 -18 15 -25 15 -7 0 -18 -7 -25 -15z m48 -12 c5 -17
-26 -29 -40 -15 -6 6 -7 15 -3 22 9 14 37 9 43 -7z"/>
<path d="M1837 1098 c-2 -7 -1 -22 4 -33 6 -16 8 -14 8 13 1 33 -4 41 -12 20z"/>
<path d="M1891 1093 c-1 -21 3 -23 47 -21 l47 1 -42 4 c-29 3 -43 9 -46 21 -3
12 -5 11 -6 -5z"/>
<path d="M1023 1093 c23 -6 22 -24 -5 -59 l-22 -29 26 23 c22 20 26 21 31 8 4
-9 11 -16 17 -16 6 0 4 7 -4 16 -21 21 -20 51 2 57 9 3 -1 5 -23 5 -22 0 -32
-2 -22 -5z"/>
<path d="M1490 1082 c0 -6 -12 -18 -27 -26 -16 -8 -23 -15 -17 -16 18 0 60 37
52 46 -5 4 -8 2 -8 -4z"/>
<path d="M2980 1055 c0 -9 -6 -12 -17 -8 -12 5 -15 2 -10 -10 5 -12 1 -17 -12
-17 -14 0 -17 -6 -13 -25 2 -14 8 -25 13 -25 5 0 6 7 3 15 -4 9 0 15 10 15 9
0 16 7 16 15 0 8 7 15 15 15 8 0 15 9 15 20 0 11 -4 20 -10 20 -5 0 -10 -7
-10 -15z"/>
<path d="M1908 1043 c17 -2 47 -2 65 0 17 2 3 4 -33 4 -36 0 -50 -2 -32 -4z"/>
<path d="M1790 1030 c0 -5 -8 -10 -17 -11 -14 0 -15 -2 -3 -6 8 -3 18 -11 22
-17 4 -6 8 1 8 17 0 15 -2 27 -5 27 -3 0 -5 -4 -5 -10z"/>
<path d="M1825 1017 c-10 -19 -8 -22 14 -24 13 0 19 2 14 5 -6 4 -12 15 -14
24 -3 15 -6 14 -14 -5z"/>
<path d="M1192 1023 c24 -3 38 -10 41 -21 3 -12 5 -11 6 6 1 20 -3 22 -41 20
l-43 -1 37 -4z"/>
<path d="M1497 1023 c33 -3 43 -8 46 -26 4 -18 5 -17 6 6 1 26 -1 27 -46 25
l-48 -1 42 -4z"/>
<path d="M1604 1019 c-3 -6 -1 -16 5 -22 9 -9 11 -8 5 6 -6 16 -2 18 27 15 24
-2 33 -7 31 -18 -3 -12 -1 -13 10 -2 11 11 10 14 -2 22 -20 13 -67 12 -76 -1z"/>
<path d="M1301 1004 c0 -11 3 -14 6 -6 3 7 2 16 -1 19 -3 4 -6 -2 -5 -13z"/>
<path d="M1890 1005 c0 -8 4 -15 10 -15 5 0 7 7 4 15 -4 8 -8 15 -10 15 -2 0
-4 -7 -4 -15z"/>
<path d="M1638 983 c7 -3 16 -2 19 1 4 3 -2 6 -13 5 -11 0 -14 -3 -6 -6z"/>
<path d="M1323 825 c0 -38 2 -53 4 -32 2 20 2 52 0 70 -2 17 -4 1 -4 -38z"/>
<path d="M1613 825 c0 -38 2 -53 4 -32 2 20 2 52 0 70 -2 17 -4 1 -4 -38z"/>
<path d="M1803 825 c0 -38 2 -54 4 -35 3 19 10 38 16 42 9 6 9 8 0 8 -6 0 -14
12 -16 28 -2 15 -4 -4 -4 -43z"/>
<path d="M1953 825 c0 -38 2 -53 4 -32 2 20 2 52 0 70 -2 17 -4 1 -4 -38z"/>
<path d="M970 859 c0 -18 -5 -21 -35 -17 -19 2 -35 0 -35 -4 0 -4 18 -8 40 -8
36 0 40 3 40 25 0 14 -2 25 -5 25 -3 0 -5 -9 -5 -21z"/>
<path d="M1078 873 c53 -5 55 -23 2 -23 -33 0 -40 -3 -40 -20 0 -11 4 -20 9
-20 5 0 12 -8 14 -17 4 -17 5 -17 6 0 0 9 8 17 16 17 8 0 15 -8 16 -17 0 -14
2 -15 6 -3 3 8 11 18 17 22 6 4 -8 8 -31 8 -24 0 -43 5 -43 10 0 6 18 10 40
10 33 0 40 3 40 20 0 17 -6 20 -47 18 l-48 -1 43 -4z"/>
<path d="M1234 866 c-3 -8 -4 -27 -2 -43 2 -22 8 -28 28 -28 20 0 26 6 28 28
5 45 -40 80 -54 43z m41 -32 c0 -19 -6 -30 -17 -32 -14 -3 -18 3 -18 26 0 16
3 32 7 36 14 13 28 -1 28 -30z"/>
<path d="M1380 873 c0 -5 11 -8 25 -8 14 0 25 3 25 8 0 4 -11 7 -25 7 -14 0
-25 -3 -25 -7z"/>
<path d="M1533 873 c22 -6 22 -31 0 -63 -16 -25 -16 -25 3 -8 19 17 21 17 39
0 17 -16 17 -16 1 8 -21 32 -20 57 2 63 9 3 -1 5 -23 5 -22 0 -32 -2 -22 -5z"/>
<path d="M1741 860 c0 -14 -8 -37 -17 -50 -15 -25 -15 -25 3 -4 l18 21 19 -21
c18 -21 18 -21 3 5 -8 14 -17 36 -20 50 l-4 24 -2 -25z"/>
<path d="M1872 868 c-14 -14 -16 -47 -3 -66 11 -18 45 -11 47 8 1 10 -1 11 -3
2 -9 -26 -38 -8 -38 23 0 34 30 48 39 18 4 -15 5 -15 3 2 -3 23 -27 31 -45 13z"/>
<path d="M2020 845 c0 -35 0 -35 43 -33 l42 1 -37 4 c-21 2 -38 8 -38 13 0 5
17 11 38 13 l37 4 -37 1 c-21 1 -38 6 -38 11 0 6 17 12 38 14 l37 4 -42 1
c-43 2 -43 2 -43 -33z"/>
<path d="M160 800 c0 -5 -7 -10 -15 -10 -8 0 -15 -7 -15 -15 0 -8 -7 -15 -15
-15 -17 0 -18 -6 -5 -35 8 -19 9 -19 9 3 1 13 7 22 16 22 8 0 15 5 15 10 0 6
7 10 15 10 8 0 12 6 9 14 -3 8 2 16 13 19 14 4 14 5 -4 6 -13 0 -23 -3 -23 -9z"/>
<path d="M908 803 c17 -2 47 -2 65 0 17 2 3 4 -33 4 -36 0 -50 -2 -32 -4z"/>
<path d="M1400 800 l-25 -8 28 -1 c15 -1 27 4 27 9 0 6 -1 10 -2 9 -2 -1 -14
-5 -28 -9z"/>
<path d="M931 774 c0 -11 3 -14 6 -6 3 7 2 16 -1 19 -3 4 -6 -2 -5 -13z"/>
<path d="M1270 631 l0 -51 40 0 39 0 -2 48 c-2 47 -2 47 -39 50 l-38 3 0 -50z
m65 19 c0 -23 -49 -20 -53 3 -3 15 2 18 25 15 17 -2 28 -9 28 -18z m5 -45 c0
-10 -10 -15 -30 -15 -20 0 -30 5 -30 15 0 10 10 15 30 15 20 0 30 -5 30 -15z"/>
<path d="M1670 655 c0 -20 5 -25 25 -25 37 0 35 -37 -2 -43 -27 -5 -27 -5 2
-3 25 1 30 5 30 26 0 18 -6 26 -22 28 -32 5 -29 30 5 35 25 4 25 4 -5 6 -29 1
-33 -2 -33 -24z"/>
<path d="M1558 658 c-9 -26 7 -73 25 -74 12 -1 13 -1 2 3 -22 7 -20 53 3 54
13 0 14 2 2 6 -8 3 -18 10 -21 15 -3 5 -8 4 -11 -4z"/>
<path d="M1384 636 c-8 -22 -1 -49 14 -52 7 -1 8 0 2 3 -21 10 -9 23 21 23 23
0 30 4 27 17 -2 9 -9 18 -16 19 -7 1 -8 0 -2 -3 19 -9 10 -23 -15 -23 -26 0
-34 15 -12 23 9 4 9 6 -1 6 -7 1 -15 -5 -18 -13z"/>
<path d="M1480 634 c0 -9 9 -18 21 -21 14 -4 18 -11 14 -22 -5 -12 -3 -13 6
-4 14 14 4 33 -18 33 -9 0 -13 6 -9 15 3 8 1 15 -4 15 -6 0 -10 -7 -10 -16z"/>
<path d="M2130 274 c0 -11 -5 -14 -16 -10 -12 4 -15 2 -10 -9 3 -10 -1 -15
-13 -15 -14 0 -17 -6 -13 -25 2 -14 8 -25 13 -25 5 0 6 7 3 15 -4 9 0 15 10
15 9 0 16 7 16 16 0 11 5 14 16 10 12 -4 15 -2 10 9 -4 11 1 15 17 15 18 0 19
2 7 10 -23 15 -40 12 -40 -6z"/>
<path d="M1050 42 c0 -27 28 -43 68 -40 42 3 42 3 27 26 -12 16 -26 22 -56 22
-21 0 -39 -4 -39 -8z"/>
</g>
</svg>
