<?xml version="1.0" standalone="no"?>
<!DOCTYPE svg PUBLIC "-//W3C//DTD SVG 20010904//EN"
 "http://www.w3.org/TR/2001/REC-SVG-20010904/DTD/svg10.dtd">
<svg version="1.0" xmlns="http://www.w3.org/2000/svg"
 width="224.000000pt" height="225.000000pt" viewBox="0 0 224.000000 225.000000"
 preserveAspectRatio="xMidYMid meet">

<g transform="translate(0.000000,225.000000) scale(0.100000,-0.100000)"
fill="#000000" stroke="none">
<path d="M1574 1458 c-12 -5 -32 -27 -45 -48 -18 -29 -29 -38 -44 -34 -33 8
-76 -32 -75 -69 0 -18 -3 -70 -6 -116 l-7 -84 -28 63 c-16 35 -32 61 -35 58
-3 -3 11 -38 30 -77 24 -47 37 -86 38 -118 1 -32 4 -20 7 35 l6 83 39 -35 c21
-20 43 -33 49 -29 7 4 8 0 4 -11 -4 -10 -7 -20 -7 -22 0 -3 -5 -2 -12 2 -7 4
-3 -8 8 -27 16 -28 27 -35 57 -37 20 -2 37 -9 37 -15 0 -8 3 -7 9 2 5 8 22 14
38 15 22 1 28 6 27 22 0 11 6 21 13 21 10 0 12 -19 9 -81 -3 -45 -5 -139 -5
-209 -1 -128 -1 -128 -23 -123 -23 6 -23 6 0 -6 22 -11 23 -16 20 -99 -4 -74
-2 -86 11 -84 16 2 20 63 12 190 -2 28 -3 146 -2 263 1 204 2 212 21 212 13 0
20 7 20 19 0 25 35 50 61 44 13 -4 19 0 19 10 0 24 58 67 92 67 16 0 45 -7 64
-16 19 -9 37 -14 41 -11 12 12 -9 61 -38 88 -16 15 -29 34 -29 42 0 22 -28 47
-52 47 -11 0 -29 11 -39 24 -23 29 -59 39 -93 26 -21 -7 -33 -5 -59 10 -34 21
-98 25 -133 8z m126 -84 c0 -16 -16 -19 -25 -4 -8 13 4 32 16 25 5 -4 9 -13 9
-21z m-112 -22 c2 -7 -3 -12 -12 -12 -9 0 -16 7 -16 16 0 17 22 14 28 -4z
m160 -124 c-6 -18 -28 -21 -28 -4 0 9 7 16 16 16 9 0 14 -5 12 -12z m-258 -63
c0 -8 -7 -15 -15 -15 -16 0 -20 12 -8 23 11 12 23 8 23 -8z m110 -15 c0 -5 -5
-10 -11 -10 -5 0 -7 5 -4 10 3 6 8 10 11 10 2 0 4 -4 4 -10z m-50 -125 c0 -22
-18 -27 -29 -7 -8 14 -6 18 10 19 10 1 19 -4 19 -12z"/>
<path d="M1120 1296 c0 -19 -20 -32 -29 -18 -4 6 -16 -3 -30 -23 -12 -19 -20
-39 -16 -44 11 -19 23 -12 18 9 -3 12 0 20 6 20 8 0 11 -11 9 -27 -2 -16 -8
-27 -15 -25 -7 1 -13 -4 -14 -10 0 -7 -4 -4 -9 7 -7 17 -9 15 -9 -12 -1 -26 5
-35 29 -48 17 -9 28 -21 24 -27 -4 -7 -10 -5 -16 6 -10 19 -28 21 -28 4 0 -6
3 -9 6 -6 3 3 17 -6 32 -21 l26 -26 7 35 c4 19 5 38 3 42 -3 5 -1 8 4 8 5 0
17 18 28 40 10 22 22 40 25 40 4 0 14 12 24 26 16 25 16 27 -4 45 -24 23 -27
23 -34 5 -4 -9 -1 -14 6 -12 7 1 9 1 4 -1 -4 -3 -5 -9 -2 -13 3 -5 1 -11 -5
-15 -5 -3 -10 1 -10 9 0 23 -15 20 -33 -6 -9 -13 -16 -18 -16 -12 -1 6 8 19
19 29 22 20 26 35 10 35 -5 0 -10 -6 -10 -14z m80 -26 c0 -5 -4 -10 -10 -10
-5 0 -10 5 -10 10 0 6 5 10 10 10 6 0 10 -4 10 -10z"/>
<path d="M896 1270 c4 -14 19 -50 35 -80 l28 -55 1 41 c0 28 6 47 20 59 11 10
20 23 20 28 0 6 -9 2 -19 -7 -19 -17 -20 -17 -24 11 -2 16 -5 5 -6 -27 l-2
-55 -30 55 c-16 30 -27 44 -23 30z"/>
<path d="M870 1085 c0 -32 3 -56 6 -52 3 3 6 26 6 52 0 26 -3 49 -6 53 -3 3
-6 -21 -6 -53z"/>
<path d="M952 1105 c0 -16 2 -22 5 -12 2 9 2 23 0 30 -3 6 -5 -1 -5 -18z"/>
<path d="M450 1050 l0 -29 -27 25 c-36 34 -42 22 -7 -15 17 -19 31 -46 34 -68
5 -35 6 -36 17 -17 8 13 10 42 6 77 -6 59 -23 79 -23 27z"/>
<path d="M825 1060 c10 -11 20 -20 23 -20 3 0 -3 9 -13 20 -10 11 -20 20 -23
20 -3 0 3 -9 13 -20z"/>
<path d="M1321 1015 c-1 -49 -4 -66 -11 -55 -5 8 -10 10 -10 4 0 -6 6 -17 14
-23 12 -10 15 -3 18 37 1 27 0 62 -3 78 -4 19 -7 5 -8 -41z"/>
<path d="M951 1044 c0 -11 3 -14 6 -6 3 7 2 16 -1 19 -3 4 -6 -2 -5 -13z"/>
<path d="M858 1018 c5 -7 12 -24 15 -38 4 -22 4 -21 6 6 1 21 -5 34 -15 38
-13 5 -14 3 -6 -6z"/>
<path d="M952 1000 c0 -14 2 -19 5 -12 2 6 2 18 0 25 -3 6 -5 1 -5 -13z"/>
<path d="M1721 1000 c-1 -30 15 -50 41 -50 17 0 17 1 1 18 -10 10 -23 27 -30
38 -11 18 -12 17 -12 -6z"/>
<path d="M1477 989 c7 -7 15 -10 18 -7 3 3 -2 9 -12 12 -14 6 -15 5 -6 -5z"/>
<path d="M1963 945 c0 -22 2 -30 4 -17 2 12 2 30 0 40 -3 9 -5 -1 -4 -23z"/>
<path d="M395 920 c21 -22 41 -37 44 -35 6 7 -60 75 -73 75 -6 0 7 -18 29 -40z"/>
<path d="M951 944 c0 -11 3 -14 6 -6 3 7 2 16 -1 19 -3 4 -6 -2 -5 -13z"/>
<path d="M763 913 c4 -21 13 -63 22 -93 16 -59 12 -120 -12 -177 -8 -20 -9
-33 -3 -33 5 0 10 -7 10 -16 0 -11 -6 -15 -20 -11 -13 3 -24 -1 -31 -14 -13
-25 -4 -38 36 -54 27 -12 31 -18 27 -43 -2 -16 1 -33 7 -36 7 -5 11 5 11 27 0
30 4 37 29 45 l30 11 4 -47 3 -47 2 46 c2 40 7 49 42 78 43 35 70 101 70 175
0 49 -31 187 -40 181 -4 -2 -12 7 -18 20 -11 24 -16 25 -93 25 l-82 0 6 -37z
m107 17 c0 -5 -5 -10 -11 -10 -5 0 -7 5 -4 10 3 6 8 10 11 10 2 0 4 -4 4 -10z
m30 -5 c0 -8 -4 -15 -10 -15 -5 0 -10 7 -10 15 0 8 5 15 10 15 6 0 10 -7 10
-15z m47 -177 c-3 -8 -6 -5 -6 6 -1 11 2 17 5 13 3 -3 4 -12 1 -19z m-81 -95
c-10 -10 -19 5 -10 18 6 11 8 11 12 0 2 -7 1 -15 -2 -18z m62 -74 c-2 -6 -8
-10 -13 -10 -5 0 -11 4 -13 10 -2 6 4 11 13 11 9 0 15 -5 13 -11z"/>
<path d="M1154 675 c0 -137 2 -195 3 -128 2 67 2 179 0 250 -1 70 -3 16 -3
-122z"/>
<path d="M1480 876 c0 -31 6 -34 13 -6 3 11 1 23 -4 26 -5 3 -9 -6 -9 -20z"/>
<path d="M1960 868 c-1 -13 -3 -116 -7 -229 -3 -139 -2 -209 5 -213 7 -4 11
68 11 229 0 129 -2 235 -4 235 -3 0 -5 -10 -5 -22z"/>
<path d="M2041 854 c0 -11 3 -14 6 -6 3 7 2 16 -1 19 -3 4 -6 -2 -5 -13z"/>
<path d="M568 826 c13 -17 22 -43 22 -64 l0 -36 -32 30 -32 29 32 -40 c24 -30
32 -49 32 -80 l-1 -40 -24 28 c-31 35 -33 26 -4 -15 19 -26 21 -42 20 -124 -1
-61 2 -94 8 -94 7 0 11 27 11 70 0 68 1 70 40 106 22 21 40 42 40 48 0 5 -16
-5 -35 -24 l-35 -34 0 39 c0 26 7 47 23 64 l22 26 -22 -19 -23 -19 0 43 c0 31
7 51 23 69 20 24 20 25 1 8 -21 -18 -22 -18 -32 20 -5 21 -10 29 -11 19 -1
-19 -1 -19 -23 0 l-22 19 22 -29z"/>
<path d="M1324 640 c0 -113 2 -159 3 -102 2 56 2 148 0 205 -1 56 -3 10 -3
-103z"/>
<path d="M380 791 c11 -22 30 -37 30 -24 -1 11 -26 43 -34 43 -4 0 -2 -9 4
-19z"/>
<path d="M1404 570 c0 -91 2 -128 3 -82 2 45 2 119 0 165 -1 45 -3 8 -3 -83z"/>
<path d="M180 712 c0 -5 7 -15 15 -22 8 -7 15 -22 15 -34 -1 -21 -1 -21 -20 3
-13 15 -20 18 -20 9 0 -8 8 -23 19 -32 10 -9 19 -28 19 -42 0 -24 -1 -24 -19
-8 -22 20 -25 7 -4 -20 9 -12 15 -45 16 -85 l1 -66 10 49 c5 31 20 62 39 83
38 44 37 55 -1 18 -28 -27 -30 -27 -30 -8 0 12 11 31 25 44 30 29 32 44 5 29
-15 -8 -20 -8 -21 2 -1 7 -2 18 -4 23 -1 6 -3 24 -4 40 -2 17 -5 24 -8 17 -4
-10 -8 -10 -19 -1 -8 7 -14 7 -14 1z"/>
<path d="M230 680 c0 -5 5 -10 11 -10 5 0 7 5 4 10 -3 6 -8 10 -11 10 -2 0 -4
-4 -4 -10z"/>
<path d="M430 524 c0 -83 3 -101 15 -101 21 0 22 155 0 183 -13 17 -14 9 -15
-82z"/>
<path d="M1475 610 c3 -5 8 -10 11 -10 2 0 4 5 4 10 0 6 -5 10 -11 10 -5 0 -7
-4 -4 -10z"/>
<path d="M1482 560 c0 -14 2 -19 5 -12 2 6 2 18 0 25 -3 6 -5 1 -5 -13z"/>
<path d="M1471 479 c-1 -32 2 -48 9 -44 12 7 14 95 2 95 -5 0 -10 -23 -11 -51z"/>
</g>
</svg>
